<svg xmlns="http://www.w3.org/2000/svg" viewBox="0 0 24 24" fill="#FFF" width="40px" height="40px" data-ux="IconSocial" class="x-el x-el-svg c1-1 c1-2 c1-56 c1-1b c1-2r c1-1d c1-1e c1-1f c1-1g c1-b c1-c"><path d="M20.624 8.034c.376 1.451.376 4.48.376 4.48s0 3.027-.376 4.478a2.258 2.258 0 0 1-1.592 1.62C17.63 19 12 19 12 19s-5.629 0-7.032-.389a2.258 2.258 0 0 1-1.592-1.619C3 15.541 3 12.513 3 12.513s0-3.028.376-4.479c.207-.8.817-1.431 1.592-1.645C6.37 6 12 6 12 6s5.629 0 7.032.389a2.294 2.294 0 0 1 1.592 1.645zm-10.465 7.827l4.705-3-4.705-3v6z"></path></svg>